<svg width="64" height="64" xmlns="http://www.w3.org/2000/svg"><g stroke-width="2" fill="none" fill-rule="evenodd" stroke-linecap="square"><path d="M38 24v-2m2.121 2.879 1.415-1.415M41 27h2m-2.879 2.121 1.415 1.415M38 30v2m-2.121-2.879-1.415 1.415M35 27h-2m2.879-2.121-1.415-1.415" stroke="#ACADFF"/><circle stroke="#ACADFF" cx="38" cy="27" r="3"/><path d="M29.86 23.18C24.8 23.988 21 27.6 21 32c0 5 4.9 9 11 9a10.55 10.55 0 0 0 3.1-.4L41 43l-.6-5.2a9.125 9.125 0 0 0 1.991-2.948" stroke="#FFF"/></g></svg>